<?xml version="1.0" standalone="no"?><!DOCTYPE svg PUBLIC "-//W3C//DTD SVG 1.1//EN" "http://www.w3.org/Graphics/SVG/1.1/DTD/svg11.dtd"><svg t="1683620568397" class="icon" viewBox="0 0 1024 1024" version="1.1" xmlns="http://www.w3.org/2000/svg" p-id="23924" width="32" height="32" xmlns:xlink="http://www.w3.org/1999/xlink"><path d="M792.91 389.16c-76.38 22.91-177.59 35.53-285 35.53s-208.61-12.62-285-35.53c-39.55-11.88-70.39-25.89-92-41.69V740c0 14.75 19.1 32.07 52.41 47.52a18.53 18.53 0 0 1 9.24 24.1q16.4 6.49 35.56 12.24A18.54 18.54 0 0 1 250.77 811c4 1 8.1 2.11 12.25 3.12a18.52 18.52 0 0 1 13.67 22.15c18.82 4.07 38.88 7.67 60 10.71A18.53 18.53 0 0 1 357.36 831a1212.08 1212.08 0 0 0 150.57 9c78.34 0 153-6.86 216.31-19.62 54.36-20.32 86.87-46.13 86.87-74.21V383.33q-8.76 3-18.2 5.83z m-57 232.29a37.12 37.12 0 0 1-30.72 36.6c-58.06 10-125.43 15.79-197.26 15.79s-139.22-5.75-197.28-15.79a37.11 37.11 0 0 1-30.7-36.6v-65.61A37.17 37.17 0 0 1 323 519.15c55.18 8.78 118.12 13.75 184.92 13.75s129.72-5 184.91-13.75a37.18 37.18 0 0 1 43.07 36.69z" fill="#FFFFFF" p-id="23925"></path><path d="M735.91 555.84v65.61a37.12 37.12 0 0 1-30.72 36.6c-58.06 10-125.43 15.79-197.26 15.79s-139.22-5.75-197.28-15.79a37.11 37.11 0 0 1-30.7-36.6v-65.61A37.17 37.17 0 0 1 323 519.15c55.18 8.78 118.12 13.75 184.92 13.75s129.72-5 184.91-13.75a37.18 37.18 0 0 1 43.08 36.69z" fill="#FFFFFF" p-id="23926"></path><path d="M550.15 857.93c-0.41 0-0.82 0-1.23 0.05h0.08zM884.88 347.47V740c0 12-12.65 23.53-23.27 31.06-18 12.78-45.45 24.92-79.36 35.09-17.94 5.39-37.37 10.17-58 14.34 54.36-20.32 86.87-46.13 86.87-74.21V383.33c30.88-10.55 55.61-22.57 73.76-35.86z" fill="#DDDDDD" p-id="23927"></path><path d="M735.91 555.84v65.61a37.12 37.12 0 0 1-30.72 36.6c-58.06 10-125.43 15.79-197.26 15.79s-139.22-5.75-197.28-15.79a37.11 37.11 0 0 1-30.7-36.6v-65.61A37.17 37.17 0 0 1 323 519.15c55.18 8.78 118.12 13.75 184.92 13.75s129.72-5 184.91-13.75a37.18 37.18 0 0 1 43.08 36.69z" fill="#F86E8A" p-id="23928"></path><path d="M276.69 836.22a2 2 0 0 1-0.05 0.24 18.53 18.53 0 0 1-18 14.15 18.06 18.06 0 0 1-4.4-0.53c-4.4-1.06-8.77-2.17-13-3.3a18.54 18.54 0 0 1-13.16-22.68c0-0.09 0-0.19 0.09-0.28a18.54 18.54 0 0 1 22.6-12.82c4 1 8.1 2.11 12.25 3.12a18.52 18.52 0 0 1 13.67 22.1z" fill="#303030" p-id="23929"></path><path d="M876.07 269a88.08 88.08 0 0 0-14.46-12.52c-18-12.78-45.45-24.92-79.36-35.09-73-21.9-170.44-34-274.32-34s-201.32 12.07-274.34 34c-33.9 10.17-61.34 22.31-79.36 35.09A88.43 88.43 0 0 0 139.78 269c-5.09 5.64-8.81 12-8.81 18.53a19.49 19.49 0 0 0 1.1 6.28 36.52 36.52 0 0 0 7.71 12.19 88.92 88.92 0 0 0 14.45 12.52c18 12.78 45.46 24.92 79.36 35.09 73 21.9 170.45 34 274.34 34s201.31-12.06 274.32-34c10.24-3.08 19.89-6.33 28.86-9.71 20.75-7.85 37.93-16.45 50.5-25.38A88.56 88.56 0 0 0 876.07 306c5.09-5.65 8.81-12 8.81-18.54s-3.72-12.85-8.81-18.46z m-89.35 24.81a31.72 31.72 0 0 1-5.45 12.19c-11.44 16-39.25 28.18-85.13 37.64-50.47 10.4-117.32 16.14-188.21 16.14s-137.75-5.74-188.21-16.14C273.82 334.22 246 322 234.58 306a31 31 0 0 1-6.07-18.54 31 31 0 0 1 6.07-18.46c11.43-16 39.24-28.18 85.14-37.64 50.46-10.4 117.3-16.14 188.21-16.14s137.74 5.74 188.21 16.14C742 240.79 769.83 253 781.27 269a31.07 31.07 0 0 1 6.06 18.53 32.54 32.54 0 0 1-0.61 6.25z" fill="#FFFFFF" p-id="23930"></path><path d="M792.91 185.85c-76.38-22.91-177.59-35.53-285-35.53s-208.61 12.62-285 35.53c-84.43 25.32-129 60.47-129 101.65V740c0 31.11 24.86 58.41 73.89 81.17a18.55 18.55 0 0 0 24.62-9c0.07-0.17 0.16-0.34 0.22-0.52a18.53 18.53 0 0 0-9.24-24.1C150.07 772 131 754.71 131 740V347.47c21.58 15.8 52.42 29.81 92 41.69 76.38 22.91 177.59 35.53 285 35.53s208.6-12.62 285-35.53q9.44-2.84 18.2-5.83c30.93-10.55 55.62-22.57 73.77-35.86V740c0 12-12.65 23.53-23.27 31.06-18 12.78-45.45 24.92-79.36 35.09-17.94 5.39-37.37 10.17-58 14.34-63.29 12.76-138 19.62-216.31 19.62a1212.08 1212.08 0 0 1-150.57-9 18.53 18.53 0 0 0-20.68 15.9 1 1 0 0 1 0 0.17 18.55 18.55 0 0 0 16.08 20.72 1249.77 1249.77 0 0 0 155.2 9.33c107.39 0 208.6-12.62 285-35.53C877.33 816.29 922 781.14 922 740V287.5c0-41.18-44.67-76.33-129.09-101.65zM548.92 858h1.23-1.23z m327.15-552a88.56 88.56 0 0 1-14.46 12.52c-12.57 8.93-29.75 17.53-50.5 25.38-9 3.38-18.62 6.63-28.86 9.71-73 21.9-170.44 34-274.32 34s-201.32-12.06-274.34-34c-33.9-10.17-61.34-22.31-79.36-35.09A88.92 88.92 0 0 1 139.78 306a36.52 36.52 0 0 1-7.71-12.26 19.49 19.49 0 0 1-1.1-6.28c0-6.52 3.72-12.89 8.81-18.53a88.43 88.43 0 0 1 14.45-12.52c18-12.78 45.46-24.92 79.36-35.09 73-21.9 170.45-34 274.34-34s201.31 12.07 274.32 34c33.91 10.17 61.35 22.31 79.36 35.09A88.08 88.08 0 0 1 876.07 269c5.09 5.64 8.81 12 8.81 18.53s-3.72 12.86-8.81 18.47z" fill="#303030" p-id="23931"></path><path d="M550.15 857.93c-0.41 0-0.82 0-1.23 0.05h0.08zM781.27 269c-11.44-16-39.25-28.18-85.13-37.64-50.47-10.4-117.32-16.14-188.21-16.14s-137.75 5.74-188.21 16.14C273.82 240.79 246 253 234.58 269a31 31 0 0 0-6.07 18.53 31 31 0 0 0 6.07 18.47c11.43 16 39.24 28.18 85.14 37.64 50.46 10.4 117.3 16.14 188.21 16.14s137.74-5.74 188.21-16.14C742 334.22 769.83 322 781.27 306a31.72 31.72 0 0 0 5.45-12.26 32.54 32.54 0 0 0 0.61-6.28 31.07 31.07 0 0 0-6.06-18.46z m-104.39 40.64c-46.55 8.44-106.55 13.1-168.95 13.1s-122.41-4.66-168.93-13.1c-6.48-1.17-12.43-2.37-17.9-3.6-19-4.2-32.13-8.52-40.93-12.26a66.84 66.84 0 0 1-12-6.28c6.26-4.37 21.72-11.63 52.94-18.53 5.47-1.23 11.42-2.43 17.9-3.6 46.54-8.44 106.53-13.1 169-13.1s122.4 4.66 169 13.1c6.48 1.17 12.43 2.37 17.9 3.6 31.21 6.9 46.68 14.16 52.93 18.53a67 67 0 0 1-12 6.28c-8.8 3.74-22 8.06-40.93 12.26-5.6 1.23-11.55 2.43-18.03 3.6z" fill="#303030" p-id="23932"></path><path d="M747.71 287.5a67 67 0 0 1-12 6.28c-8.8 3.74-22 8.06-40.93 12.26-5.47 1.23-11.42 2.43-17.9 3.6-46.55 8.44-106.55 13.1-168.95 13.1s-122.41-4.66-168.93-13.1c-6.48-1.17-12.43-2.37-17.9-3.6-19-4.2-32.13-8.52-40.93-12.26a66.84 66.84 0 0 1-12-6.28c6.26-4.37 21.72-11.63 52.94-18.53 5.47-1.23 11.42-2.43 17.9-3.6 46.54-8.44 106.53-13.1 169-13.1s122.4 4.66 169 13.1c6.48 1.17 12.43 2.37 17.9 3.6 31.09 6.9 46.55 14.16 52.8 18.53z" fill="#FFFFFF" p-id="23933"></path></svg>